<svg width="10" height="9" viewBox="0 0 10 9" fill="none" xmlns="http://www.w3.org/2000/svg">
<path fill-rule="evenodd" clip-rule="evenodd" d="M1.06931 0C0.82078 0 0.619308 0.201472 0.619308 0.45C0.619308 0.698528 0.82078 0.9 1.06931 0.9H1.45605C1.683 0.9 1.87443 1.06899 1.90258 1.29418L2.49299 6.01745C2.57743 6.69303 3.15173 7.2 3.83256 7.2H7.81931C8.06784 7.2 8.26931 6.99853 8.26931 6.75C8.26931 6.50147 8.06784 6.3 7.81931 6.3H3.83256C3.60562 6.3 3.41419 6.13101 3.38604 5.90582L3.37906 5.85H7.9248C8.60564 5.85 9.17993 5.34303 9.26438 4.66745L9.48938 2.86745C9.5901 2.0617 8.96183 1.35 8.1498 1.35H2.81656L2.79563 1.18255C2.71118 0.506975 2.13689 0 1.45605 0H1.06931ZM2.92906 2.25L3.26656 4.95H7.9248C8.15175 4.95 8.34318 4.78101 8.37133 4.55582L8.59633 2.75582C8.6299 2.48723 8.42048 2.25 8.1498 2.25H2.92906Z" fill="#08040F"/>
<path d="M4.66931 8.325C4.66931 8.69779 4.3671 9 3.99431 9C3.62152 9 3.31931 8.69779 3.31931 8.325C3.31931 7.95221 3.62152 7.65 3.99431 7.65C4.3671 7.65 4.66931 7.95221 4.66931 8.325Z" fill="#08040F"/>
<path d="M7.14431 9C7.5171 9 7.81931 8.69779 7.81931 8.325C7.81931 7.95221 7.5171 7.65 7.14431 7.65C6.77152 7.65 6.46931 7.95221 6.46931 8.325C6.46931 8.69779 6.77152 9 7.14431 9Z" fill="#08040F"/>
</svg>
