<svg width="146" height="24" viewBox="0 0 146 24" fill="none" xmlns="http://www.w3.org/2000/svg">
<path d="M14.072 18V7.848L10.4 15.24H8.24L4.568 7.848V18H0.632V0.959999H4.904L9.32 9.864L13.76 0.959999H18.008V18H14.072ZM20.0124 14.232C20.0124 13.4 20.2444 12.672 20.7084 12.048C21.1724 11.424 21.8124 10.936 22.6284 10.584C23.4444 10.216 24.3804 10.032 25.4364 10.032C25.9484 10.032 26.4524 10.08 26.9484 10.176C27.4444 10.256 27.8764 10.376 28.2444 10.536V9.984C28.2444 9.296 28.0364 8.768 27.6204 8.4C27.2044 8.032 26.5724 7.848 25.7244 7.848C25.0204 7.848 24.3564 7.968 23.7324 8.208C23.1244 8.448 22.4764 8.792 21.7884 9.24L20.6364 6.792C21.4684 6.248 22.3324 5.84 23.2284 5.568C24.1404 5.296 25.1004 5.16 26.1084 5.16C27.9964 5.16 29.4604 5.616 30.5004 6.528C31.5564 7.424 32.0844 8.728 32.0844 10.44V13.728C32.0844 14.112 32.1404 14.384 32.2524 14.544C32.3804 14.688 32.5964 14.776 32.9004 14.808V18C32.5804 18.064 32.2764 18.112 31.9884 18.144C31.7164 18.176 31.4764 18.192 31.2684 18.192C30.5484 18.192 29.9964 18.048 29.6124 17.76C29.2444 17.472 29.0124 17.08 28.9164 16.584L28.8444 16.032C28.2844 16.752 27.6124 17.304 26.8284 17.688C26.0604 18.056 25.2524 18.24 24.4044 18.24C23.5724 18.24 22.8204 18.064 22.1484 17.712C21.4924 17.36 20.9724 16.88 20.5884 16.272C20.2044 15.664 20.0124 14.984 20.0124 14.232ZM27.6444 14.712C27.8204 14.568 27.9644 14.408 28.0764 14.232C28.1884 14.056 28.2444 13.888 28.2444 13.728V12.6C27.9244 12.472 27.5644 12.376 27.1644 12.312C26.7804 12.232 26.4204 12.192 26.0844 12.192C25.3804 12.192 24.7964 12.352 24.3324 12.672C23.8684 12.976 23.6364 13.384 23.6364 13.896C23.6364 14.184 23.7164 14.448 23.8764 14.688C24.0364 14.928 24.2524 15.12 24.5244 15.264C24.8124 15.408 25.1484 15.48 25.5324 15.48C25.9164 15.48 26.3004 15.408 26.6844 15.264C27.0684 15.12 27.3884 14.936 27.6444 14.712ZM42.8589 8.688C41.9309 8.688 41.0909 8.84 40.3389 9.144C39.5869 9.432 39.0429 9.864 38.7069 10.44V18H34.8669V5.4H38.3949V7.944C38.8269 7.096 39.3869 6.432 40.0749 5.952C40.7629 5.472 41.4829 5.224 42.2349 5.208C42.4109 5.208 42.5389 5.208 42.6189 5.208C42.7149 5.208 42.7949 5.216 42.8589 5.232V8.688ZM52.9483 18L49.6603 12.96L48.3163 14.328V18H44.4763V0.48H48.3163V10.608L52.5883 5.4H56.6443L52.1083 10.824L57.0283 18H52.9483ZM63.5315 18.24C62.4595 18.24 61.5075 18.072 60.6755 17.736C59.8435 17.384 59.1315 16.912 58.5395 16.32C57.9635 15.728 57.5235 15.048 57.2195 14.28C56.9155 13.496 56.7635 12.68 56.7635 11.832C56.7635 10.616 57.0275 9.512 57.5555 8.52C58.0995 7.512 58.8755 6.704 59.8835 6.096C60.8915 5.472 62.1075 5.16 63.5315 5.16C64.9555 5.16 66.1635 5.464 67.1555 6.072C68.1635 6.68 68.9315 7.48 69.4595 8.472C69.9875 9.448 70.2515 10.512 70.2515 11.664C70.2515 11.888 70.2355 12.112 70.2035 12.336C70.1875 12.544 70.1715 12.728 70.1555 12.888H60.8435C60.8915 13.448 61.0435 13.92 61.2995 14.304C61.5715 14.688 61.9155 14.984 62.3315 15.192C62.7475 15.384 63.1875 15.48 63.6515 15.48C64.2275 15.48 64.7635 15.344 65.2595 15.072C65.7715 14.8 66.1235 14.432 66.3155 13.968L69.5795 14.88C69.2595 15.536 68.8035 16.12 68.2115 16.632C67.6355 17.128 66.9475 17.52 66.1475 17.808C65.3635 18.096 64.4915 18.24 63.5315 18.24ZM60.7475 10.536H66.2195C66.1555 10.008 66.0035 9.552 65.7635 9.168C65.5235 8.768 65.2035 8.464 64.8035 8.256C64.4035 8.032 63.9635 7.92 63.4835 7.92C62.9875 7.92 62.5395 8.032 62.1395 8.256C61.7555 8.464 61.4435 8.768 61.2035 9.168C60.9635 9.552 60.8115 10.008 60.7475 10.536ZM80.0113 17.328C79.6593 17.472 79.2673 17.616 78.8353 17.76C78.4193 17.904 77.9793 18.016 77.5153 18.096C77.0513 18.192 76.5953 18.24 76.1473 18.24C75.5073 18.24 74.9153 18.136 74.3713 17.928C73.8433 17.704 73.4193 17.344 73.0993 16.848C72.7953 16.352 72.6433 15.696 72.6433 14.88V8.304H71.0353V5.4H72.6433V1.392H76.4833V5.4H79.0513V8.304H76.4833V13.56C76.4833 13.976 76.5873 14.28 76.7953 14.472C77.0033 14.648 77.2673 14.736 77.5872 14.736C77.8593 14.736 78.1473 14.688 78.4513 14.592C78.7713 14.496 79.0433 14.392 79.2673 14.28L80.0113 17.328Z" fill="#08040F"/>
<path d="M89.4755 18.24C88.5315 18.24 87.7075 18.04 87.0035 17.64C86.2995 17.224 85.7475 16.664 85.3475 15.96V23.112H81.5075V5.4H84.8435V7.44C85.3075 6.72 85.8915 6.16 86.5955 5.76C87.2995 5.36 88.1235 5.16 89.0675 5.16C89.9155 5.16 90.6915 5.328 91.3955 5.664C92.1155 6 92.7395 6.464 93.2675 7.056C93.7955 7.648 94.2035 8.336 94.4915 9.12C94.7795 9.904 94.9235 10.752 94.9235 11.664C94.9235 12.912 94.6915 14.032 94.2275 15.024C93.7635 16.016 93.1155 16.8 92.2835 17.376C91.4675 17.952 90.5315 18.24 89.4755 18.24ZM88.1795 15C88.5955 15 88.9715 14.912 89.3075 14.736C89.6595 14.544 89.9635 14.296 90.2195 13.992C90.4755 13.688 90.6675 13.336 90.7955 12.936C90.9395 12.52 91.0115 12.088 91.0115 11.64C91.0115 11.176 90.9315 10.752 90.7715 10.368C90.6275 9.984 90.4195 9.648 90.1475 9.36C89.8755 9.056 89.5555 8.824 89.1875 8.664C88.8195 8.504 88.4195 8.424 87.9875 8.424C87.7315 8.424 87.4675 8.464 87.1955 8.544C86.9395 8.624 86.6915 8.744 86.4515 8.904C86.2275 9.048 86.0195 9.224 85.8275 9.432C85.6355 9.64 85.4755 9.88 85.3475 10.152V12.744C85.5235 13.176 85.7555 13.56 86.0435 13.896C86.3315 14.232 86.6595 14.504 87.0275 14.712C87.3955 14.904 87.7795 15 88.1795 15ZM96.8111 0.48H100.651V13.512C100.651 14.04 100.747 14.416 100.939 14.64C101.131 14.864 101.403 14.976 101.755 14.976C101.995 14.976 102.235 14.944 102.475 14.88C102.731 14.8 102.955 14.712 103.147 14.616L103.651 17.496C103.171 17.72 102.619 17.896 101.995 18.024C101.371 18.152 100.787 18.216 100.243 18.216C99.1551 18.216 98.3071 17.928 97.6991 17.352C97.1071 16.76 96.8111 15.928 96.8111 14.856V0.48ZM104.106 14.232C104.106 13.4 104.338 12.672 104.802 12.048C105.266 11.424 105.906 10.936 106.722 10.584C107.538 10.216 108.474 10.032 109.53 10.032C110.042 10.032 110.546 10.08 111.042 10.176C111.538 10.256 111.97 10.376 112.338 10.536V9.984C112.338 9.296 112.13 8.768 111.714 8.4C111.298 8.032 110.666 7.848 109.818 7.848C109.114 7.848 108.45 7.968 107.826 8.208C107.218 8.448 106.57 8.792 105.882 9.24L104.73 6.792C105.562 6.248 106.426 5.84 107.322 5.568C108.234 5.296 109.194 5.16 110.202 5.16C112.09 5.16 113.554 5.616 114.594 6.528C115.65 7.424 116.178 8.728 116.178 10.44V13.728C116.178 14.112 116.234 14.384 116.346 14.544C116.474 14.688 116.69 14.776 116.994 14.808V18C116.674 18.064 116.37 18.112 116.082 18.144C115.81 18.176 115.57 18.192 115.362 18.192C114.642 18.192 114.09 18.048 113.706 17.76C113.338 17.472 113.106 17.08 113.01 16.584L112.938 16.032C112.378 16.752 111.706 17.304 110.922 17.688C110.154 18.056 109.346 18.24 108.498 18.24C107.666 18.24 106.914 18.064 106.242 17.712C105.586 17.36 105.066 16.88 104.682 16.272C104.298 15.664 104.106 14.984 104.106 14.232ZM111.738 14.712C111.914 14.568 112.058 14.408 112.17 14.232C112.282 14.056 112.338 13.888 112.338 13.728V12.6C112.018 12.472 111.658 12.376 111.258 12.312C110.874 12.232 110.514 12.192 110.178 12.192C109.474 12.192 108.89 12.352 108.426 12.672C107.962 12.976 107.73 13.384 107.73 13.896C107.73 14.184 107.81 14.448 107.97 14.688C108.13 14.928 108.346 15.12 108.618 15.264C108.906 15.408 109.242 15.48 109.626 15.48C110.01 15.48 110.394 15.408 110.778 15.264C111.162 15.12 111.482 14.936 111.738 14.712ZM124.985 18.24C123.913 18.24 122.961 18.064 122.129 17.712C121.297 17.36 120.585 16.88 119.993 16.272C119.417 15.664 118.977 14.968 118.673 14.184C118.369 13.4 118.217 12.568 118.217 11.688C118.217 10.536 118.481 9.464 119.009 8.472C119.553 7.48 120.329 6.68 121.337 6.072C122.345 5.464 123.561 5.16 124.985 5.16C126.425 5.16 127.641 5.472 128.633 6.096C129.641 6.704 130.393 7.504 130.889 8.496L127.145 9.624C126.905 9.24 126.593 8.944 126.209 8.736C125.841 8.528 125.425 8.424 124.961 8.424C124.433 8.424 123.953 8.56 123.521 8.832C123.105 9.104 122.769 9.48 122.513 9.96C122.273 10.44 122.153 11.016 122.153 11.688C122.153 12.344 122.281 12.92 122.537 13.416C122.793 13.912 123.129 14.304 123.545 14.592C123.961 14.864 124.433 15 124.961 15C125.281 15 125.577 14.952 125.849 14.856C126.137 14.744 126.393 14.592 126.617 14.4C126.857 14.208 127.041 13.992 127.169 13.752L130.913 14.904C130.609 15.544 130.169 16.12 129.593 16.632C129.033 17.128 128.369 17.52 127.601 17.808C126.833 18.096 125.961 18.24 124.985 18.24ZM138.555 18.24C137.483 18.24 136.531 18.072 135.699 17.736C134.867 17.384 134.155 16.912 133.563 16.32C132.987 15.728 132.547 15.048 132.243 14.28C131.939 13.496 131.787 12.68 131.787 11.832C131.787 10.616 132.051 9.512 132.579 8.52C133.123 7.512 133.899 6.704 134.907 6.096C135.915 5.472 137.131 5.16 138.555 5.16C139.979 5.16 141.187 5.464 142.179 6.072C143.187 6.68 143.955 7.48 144.483 8.472C145.011 9.448 145.275 10.512 145.275 11.664C145.275 11.888 145.259 12.112 145.227 12.336C145.211 12.544 145.195 12.728 145.179 12.888H135.867C135.915 13.448 136.067 13.92 136.323 14.304C136.595 14.688 136.939 14.984 137.355 15.192C137.771 15.384 138.211 15.48 138.675 15.48C139.251 15.48 139.787 15.344 140.283 15.072C140.795 14.8 141.147 14.432 141.339 13.968L144.603 14.88C144.283 15.536 143.827 16.12 143.235 16.632C142.659 17.128 141.971 17.52 141.171 17.808C140.387 18.096 139.515 18.24 138.555 18.24ZM135.771 10.536H141.243C141.179 10.008 141.027 9.552 140.787 9.168C140.547 8.768 140.227 8.464 139.827 8.256C139.427 8.032 138.987 7.92 138.507 7.92C138.011 7.92 137.563 8.032 137.163 8.256C136.779 8.464 136.467 8.768 136.227 9.168C135.987 9.552 135.835 10.008 135.771 10.536Z" fill="#005CFB"/>
</svg>
