<svg width="14" height="13" viewBox="0 0 14 13" fill="none" xmlns="http://www.w3.org/2000/svg">
<path fill-rule="evenodd" clip-rule="evenodd" d="M7.61669 0.894468C7.31295 1.19821 7.31295 1.69067 7.61669 1.99441L11.3445 5.72222L0.777778 5.72222C0.348223 5.72222 5.12239e-09 6.07044 0 6.5C-5.12239e-09 6.92955 0.348223 7.27777 0.777778 7.27777L11.3445 7.27777L7.61669 11.0056C7.31295 11.3093 7.31295 11.8018 7.61669 12.1055C7.92044 12.4093 8.4129 12.4093 8.71664 12.1055L13.7722 7.04997C14.0759 6.74623 14.0759 6.25376 13.7722 5.95002L8.71664 0.894468C8.4129 0.590727 7.92044 0.590727 7.61669 0.894468Z" fill="#005CFB"/>
</svg>
