<svg width="71" height="13" viewBox="0 0 71 13" fill="none" xmlns="http://www.w3.org/2000/svg">
<path d="M5.62374 1.35324C5.99338 0.215589 7.60285 0.215588 7.9725 1.35324L8.60013 3.2849C8.76544 3.79367 9.23956 4.13814 9.77451 4.13814H11.8056C13.0018 4.13814 13.4991 5.66883 12.5314 6.37194L10.8882 7.56578C10.4554 7.88021 10.2743 8.43757 10.4396 8.94634L11.0673 10.878C11.4369 12.0157 10.1348 12.9617 9.1671 12.2586L7.52392 11.0647C7.09114 10.7503 6.5051 10.7503 6.07231 11.0647L4.42914 12.2586C3.4614 12.9617 2.15931 12.0157 2.52895 10.878L3.15659 8.94634C3.3219 8.43757 3.1408 7.88021 2.70802 7.56578L1.06484 6.37194C0.0971017 5.66884 0.594454 4.13814 1.79065 4.13814H3.82172C4.35668 4.13814 4.83079 3.79367 4.9961 3.2849L5.62374 1.35324Z" fill="#FFA927"/>
<path d="M20.113 1.35324C20.4826 0.215589 22.0921 0.215588 22.4618 1.35324L23.0894 3.2849C23.2547 3.79367 23.7288 4.13814 24.2638 4.13814H26.2948C27.491 4.13814 27.9884 5.66883 27.0206 6.37194L25.3775 7.56578C24.9447 7.88021 24.7636 8.43757 24.9289 8.94634L25.5565 10.878C25.9262 12.0157 24.6241 12.9617 23.6564 12.2586L22.0132 11.0647C21.5804 10.7503 20.9944 10.7503 20.5616 11.0647L18.9184 12.2586C17.9507 12.9617 16.6486 12.0157 17.0182 10.878L17.6458 8.94634C17.8112 8.43757 17.6301 7.88021 17.1973 7.56578L15.5541 6.37194C14.5864 5.66884 15.0837 4.13814 16.2799 4.13814H18.311C18.8459 4.13814 19.32 3.79367 19.4854 3.2849L20.113 1.35324Z" fill="#FFA927"/>
<path d="M34.6023 1.35324C34.9719 0.215589 36.5814 0.215588 36.951 1.35324L37.5786 3.2849C37.744 3.79367 38.2181 4.13814 38.753 4.13814H40.7841C41.9803 4.13814 42.4776 5.66883 41.5099 6.37194L39.8667 7.56578C39.4339 7.88021 39.2529 8.43757 39.4182 8.94634L40.0458 10.878C40.4154 12.0157 39.1134 12.9617 38.1456 12.2586L36.5024 11.0647C36.0697 10.7503 35.4836 10.7503 35.0508 11.0647L33.4077 12.2586C32.4399 12.9617 31.1378 12.0157 31.5075 10.878L32.1351 8.94634C32.3004 8.43757 32.1193 7.88021 31.6865 7.56578L30.0434 6.37194C29.0756 5.66884 29.573 4.13814 30.7692 4.13814H32.8002C33.3352 4.13814 33.8093 3.79367 33.9746 3.2849L34.6023 1.35324Z" fill="#FFA927"/>
<path d="M49.0918 1.35324C49.4614 0.215589 51.0709 0.215588 51.4405 1.35324L52.0681 3.2849C52.2335 3.79367 52.7076 4.13814 53.2425 4.13814H55.2736C56.4698 4.13814 56.9672 5.66883 55.9994 6.37194L54.3562 7.56578C53.9234 7.88021 53.7424 8.43757 53.9077 8.94634L54.5353 10.878C54.9049 12.0157 53.6029 12.9617 52.6351 12.2586L50.9919 11.0647C50.5592 10.7503 49.9731 10.7503 49.5403 11.0647L47.8972 12.2586C46.9294 12.9617 45.6273 12.0157 45.997 10.878L46.6246 8.94634C46.7899 8.43757 46.6088 7.88021 46.176 7.56578L44.5329 6.37194C43.5651 5.66884 44.0625 4.13814 45.2587 4.13814H47.2897C47.8247 4.13814 48.2988 3.79367 48.4641 3.2849L49.0918 1.35324Z" fill="#FFA927"/>
<path d="M63.581 1.35324C63.9507 0.215589 65.5601 0.215588 65.9298 1.35324L66.5574 3.2849C66.7227 3.79367 67.1968 4.13814 67.7318 4.13814H69.7629C70.9591 4.13814 71.4564 5.66883 70.4887 6.37194L68.8455 7.56578C68.4127 7.88021 68.2316 8.43757 68.3969 8.94634L69.0246 10.878C69.3942 12.0157 68.0921 12.9617 67.1244 12.2586L65.4812 11.0647C65.0484 10.7503 64.4624 10.7503 64.0296 11.0647L62.3864 12.2586C61.4187 12.9617 60.1166 12.0157 60.4862 10.878L61.1139 8.94634C61.2792 8.43757 61.0981 7.88021 60.6653 7.56578L59.0221 6.37194C58.0544 5.66884 58.5517 4.13814 59.7479 4.13814H61.779C62.314 4.13814 62.7881 3.79367 62.9534 3.2849L63.581 1.35324Z" fill="#FFA927"/>
</svg>
