<svg width="133" height="24" viewBox="0 0 133 24" fill="none" xmlns="http://www.w3.org/2000/svg">
<path d="M10.1405 1.70647C10.8798 -0.568823 14.0988 -0.568825 14.8381 1.70647L16.0933 5.56981C16.4239 6.58735 17.3722 7.27628 18.4421 7.27628H22.5042C24.8966 7.27628 25.8913 10.3377 23.9558 11.7439L20.6695 14.1316C19.8039 14.7604 19.4417 15.8751 19.7724 16.8927L21.0276 20.756C21.7669 23.0313 19.1627 24.9234 17.2273 23.5171L13.9409 21.1295C13.0753 20.5006 11.9033 20.5006 11.0377 21.1295L7.75134 23.5171C5.81586 24.9234 3.21168 23.0313 3.95097 20.756L5.20624 16.8927C5.53686 15.8751 5.17467 14.7604 4.3091 14.1316L1.02275 11.7439C-0.91273 10.3377 0.0819741 7.27628 2.47436 7.27628H6.53651C7.60642 7.27628 8.55465 6.58735 8.88527 5.56981L10.1405 1.70647Z" fill="#FFA927"/>
<path d="M37.1191 1.70647C37.8583 -0.568823 41.0773 -0.568825 41.8166 1.70647L43.0718 5.56981C43.4025 6.58735 44.3507 7.27628 45.4206 7.27628H49.4827C51.8751 7.27628 52.8698 10.3377 50.9344 11.7439L47.648 14.1316C46.7824 14.7604 46.4203 15.8751 46.7509 16.8927L48.0061 20.756C48.7454 23.0313 46.1413 24.9234 44.2058 23.5171L40.9194 21.1295C40.0539 20.5006 38.8818 20.5006 38.0162 21.1295L34.7299 23.5171C32.7944 24.9234 30.1902 23.0313 30.9295 20.756L32.1848 16.8927C32.5154 15.8751 32.1532 14.7604 31.2876 14.1316L28.0013 11.7439C26.0658 10.3377 27.0605 7.27628 29.4529 7.27628H33.515C34.5849 7.27628 35.5332 6.58735 35.8638 5.56981L37.1191 1.70647Z" fill="#FFA927"/>
<path d="M64.0978 1.70647C64.8371 -0.568823 68.056 -0.568825 68.7953 1.70647L70.0506 5.56981C70.3812 6.58735 71.3295 7.27628 72.3994 7.27628H76.4615C78.8539 7.27628 79.8486 10.3377 77.9131 11.7439L74.6268 14.1316C73.7612 14.7604 73.399 15.8751 73.7296 16.8927L74.9849 20.756C75.7242 23.0313 73.12 24.9234 71.1845 23.5171L67.8982 21.1295C67.0326 20.5006 65.8605 20.5006 64.995 21.1295L61.7086 23.5171C59.7731 24.9234 57.169 23.0313 57.9082 20.756L59.1635 16.8927C59.4941 15.8751 59.1319 14.7604 58.2664 14.1316L54.98 11.7439C53.0445 10.3377 54.0392 7.27628 56.4316 7.27628H60.4938C61.5637 7.27628 62.5119 6.58735 62.8425 5.56981L64.0978 1.70647Z" fill="#FFA927"/>
<path d="M91.0763 1.70647C91.8156 -0.568823 95.0346 -0.568825 95.7738 1.70647L97.0291 5.56981C97.3597 6.58735 98.308 7.27628 99.3779 7.27628H103.44C105.832 7.27628 106.827 10.3377 104.892 11.7439L101.605 14.1316C100.74 14.7604 100.378 15.8751 100.708 16.8927L101.963 20.756C102.703 23.0313 100.099 24.9234 98.1631 23.5171L94.8767 21.1295C94.0111 20.5006 92.8391 20.5006 91.9735 21.1295L88.6871 23.5171C86.7516 24.9234 84.1475 23.0313 84.8868 20.756L86.142 16.8927C86.4727 15.8751 86.1105 14.7604 85.2449 14.1316L81.9585 11.7439C80.0231 10.3377 81.0178 7.27628 83.4102 7.27628H87.4723C88.5422 7.27628 89.4904 6.58735 89.8211 5.56981L91.0763 1.70647Z" fill="#FFA927"/>
<path d="M118.055 1.70647C118.794 -0.568823 122.013 -0.568825 122.752 1.70647L124.008 5.56981C124.338 6.58735 125.286 7.27628 126.356 7.27628H130.419C132.811 7.27628 133.806 10.3377 131.87 11.7439L128.584 14.1316C127.718 14.7604 127.356 15.8751 127.687 16.8927L128.942 20.756C129.681 23.0313 127.077 24.9234 125.142 23.5171L121.855 21.1295C120.99 20.5006 119.818 20.5006 118.952 21.1295L115.666 23.5171C113.73 24.9234 111.126 23.0313 111.865 20.756L113.121 16.8927C113.451 15.8751 113.089 14.7604 112.223 14.1316L108.937 11.7439C107.002 10.3377 107.996 7.27628 110.389 7.27628H114.451C115.521 7.27628 116.469 6.58735 116.8 5.56981L118.055 1.70647Z" fill="#FFA927"/>
</svg>
